<mxfile host="app.diagrams.net" modified="2023-03-28T05:06:54.024Z" agent="Mozilla/5.0 (Macintosh; Intel Mac OS X 10_15_7) AppleWebKit/537.36 (KHTML, like Gecko) Chrome/111.0.0.0 Safari/537.36" etag="193II8dagioGF1FfngmP" version="21.1.1" type="device">
  <diagram name="Page-1" id="LgQCwT1X4suE8flTy2Ob">
    <mxGraphModel dx="714" dy="520" grid="1" gridSize="10" guides="1" tooltips="1" connect="1" arrows="1" fold="1" page="1" pageScale="1" pageWidth="827" pageHeight="1169" math="0" shadow="0">
      <root>
        <mxCell id="0" />
        <mxCell id="1" parent="0" />
        <mxCell id="VtlC3d1eavs3r2MFD2L7-1" value="Shard 1" style="rounded=1;whiteSpace=wrap;html=1;" vertex="1" parent="1">
          <mxGeometry x="180" y="70" width="110" height="100" as="geometry" />
        </mxCell>
        <mxCell id="VtlC3d1eavs3r2MFD2L7-2" value="Shard 3" style="rounded=1;whiteSpace=wrap;html=1;" vertex="1" parent="1">
          <mxGeometry x="470" y="70" width="110" height="100" as="geometry" />
        </mxCell>
        <mxCell id="VtlC3d1eavs3r2MFD2L7-3" value="Shard 2" style="rounded=1;whiteSpace=wrap;html=1;" vertex="1" parent="1">
          <mxGeometry x="330" y="70" width="110" height="100" as="geometry" />
        </mxCell>
        <mxCell id="VtlC3d1eavs3r2MFD2L7-16" style="edgeStyle=orthogonalEdgeStyle;rounded=0;orthogonalLoop=1;jettySize=auto;html=1;exitX=1;exitY=0.5;exitDx=0;exitDy=0;entryX=0.5;entryY=1;entryDx=0;entryDy=0;" edge="1" parent="1" source="VtlC3d1eavs3r2MFD2L7-4" target="VtlC3d1eavs3r2MFD2L7-5">
          <mxGeometry relative="1" as="geometry" />
        </mxCell>
        <mxCell id="VtlC3d1eavs3r2MFD2L7-4" value="Client Application" style="whiteSpace=wrap;html=1;aspect=fixed;" vertex="1" parent="1">
          <mxGeometry x="220" y="410" width="90" height="90" as="geometry" />
        </mxCell>
        <mxCell id="VtlC3d1eavs3r2MFD2L7-10" style="edgeStyle=orthogonalEdgeStyle;rounded=0;orthogonalLoop=1;jettySize=auto;html=1;exitX=0.5;exitY=0;exitDx=0;exitDy=0;entryX=0.5;entryY=1;entryDx=0;entryDy=0;" edge="1" parent="1" source="VtlC3d1eavs3r2MFD2L7-5" target="VtlC3d1eavs3r2MFD2L7-3">
          <mxGeometry relative="1" as="geometry" />
        </mxCell>
        <mxCell id="VtlC3d1eavs3r2MFD2L7-14" style="edgeStyle=orthogonalEdgeStyle;rounded=0;orthogonalLoop=1;jettySize=auto;html=1;exitX=0;exitY=0.5;exitDx=0;exitDy=0;" edge="1" parent="1" source="VtlC3d1eavs3r2MFD2L7-5">
          <mxGeometry relative="1" as="geometry">
            <mxPoint x="260" y="300" as="targetPoint" />
          </mxGeometry>
        </mxCell>
        <mxCell id="VtlC3d1eavs3r2MFD2L7-5" value="Mongos1. Take Request From Client application" style="ellipse;whiteSpace=wrap;html=1;" vertex="1" parent="1">
          <mxGeometry x="360" y="260" width="120" height="80" as="geometry" />
        </mxCell>
        <mxCell id="VtlC3d1eavs3r2MFD2L7-11" style="edgeStyle=orthogonalEdgeStyle;rounded=0;orthogonalLoop=1;jettySize=auto;html=1;entryX=0.5;entryY=1;entryDx=0;entryDy=0;exitX=0.5;exitY=0;exitDx=0;exitDy=0;" edge="1" parent="1" source="VtlC3d1eavs3r2MFD2L7-6" target="VtlC3d1eavs3r2MFD2L7-3">
          <mxGeometry relative="1" as="geometry">
            <mxPoint x="560" y="240" as="sourcePoint" />
          </mxGeometry>
        </mxCell>
        <mxCell id="VtlC3d1eavs3r2MFD2L7-12" style="edgeStyle=orthogonalEdgeStyle;rounded=0;orthogonalLoop=1;jettySize=auto;html=1;exitX=0.5;exitY=0;exitDx=0;exitDy=0;entryX=0.5;entryY=1;entryDx=0;entryDy=0;" edge="1" parent="1" source="VtlC3d1eavs3r2MFD2L7-6" target="VtlC3d1eavs3r2MFD2L7-2">
          <mxGeometry relative="1" as="geometry" />
        </mxCell>
        <mxCell id="VtlC3d1eavs3r2MFD2L7-13" style="edgeStyle=orthogonalEdgeStyle;rounded=0;orthogonalLoop=1;jettySize=auto;html=1;exitX=0.5;exitY=0;exitDx=0;exitDy=0;" edge="1" parent="1" source="VtlC3d1eavs3r2MFD2L7-6" target="VtlC3d1eavs3r2MFD2L7-1">
          <mxGeometry relative="1" as="geometry" />
        </mxCell>
        <mxCell id="VtlC3d1eavs3r2MFD2L7-15" style="edgeStyle=orthogonalEdgeStyle;rounded=0;orthogonalLoop=1;jettySize=auto;html=1;exitX=0;exitY=0.5;exitDx=0;exitDy=0;entryX=1;entryY=1;entryDx=0;entryDy=0;" edge="1" parent="1" source="VtlC3d1eavs3r2MFD2L7-6" target="VtlC3d1eavs3r2MFD2L7-9">
          <mxGeometry relative="1" as="geometry">
            <Array as="points">
              <mxPoint x="500" y="350" />
              <mxPoint x="250" y="350" />
            </Array>
          </mxGeometry>
        </mxCell>
        <mxCell id="VtlC3d1eavs3r2MFD2L7-6" value="Mongos2. used when purging the date by sys admin" style="ellipse;whiteSpace=wrap;html=1;" vertex="1" parent="1">
          <mxGeometry x="500" y="260" width="120" height="80" as="geometry" />
        </mxCell>
        <mxCell id="VtlC3d1eavs3r2MFD2L7-7" value="" style="whiteSpace=wrap;html=1;aspect=fixed;" vertex="1" parent="1">
          <mxGeometry x="150" y="240" width="80" height="80" as="geometry" />
        </mxCell>
        <mxCell id="VtlC3d1eavs3r2MFD2L7-9" value="Config Server" style="whiteSpace=wrap;html=1;aspect=fixed;" vertex="1" parent="1">
          <mxGeometry x="170" y="250" width="80" height="80" as="geometry" />
        </mxCell>
        <mxCell id="VtlC3d1eavs3r2MFD2L7-18" style="edgeStyle=orthogonalEdgeStyle;rounded=0;orthogonalLoop=1;jettySize=auto;html=1;exitX=0.5;exitY=0;exitDx=0;exitDy=0;entryX=0.5;entryY=1;entryDx=0;entryDy=0;" edge="1" parent="1" source="VtlC3d1eavs3r2MFD2L7-17" target="VtlC3d1eavs3r2MFD2L7-6">
          <mxGeometry relative="1" as="geometry" />
        </mxCell>
        <mxCell id="VtlC3d1eavs3r2MFD2L7-17" value="Admin&#39;s System" style="image;html=1;image=img/lib/clip_art/computers/Laptop_128x128.png" vertex="1" parent="1">
          <mxGeometry x="570" y="410" width="80" height="80" as="geometry" />
        </mxCell>
      </root>
    </mxGraphModel>
  </diagram>
</mxfile>
